<svg width="48" height="48" viewBox="0 0 48 48" fill="none" xmlns="http://www.w3.org/2000/svg">
<circle cx="24" cy="24" r="24" fill="#F2EAD3"/>
<path d="M35.1666 37.625V34.7083C35.1666 33.1612 34.5521 31.6775 33.4581 30.5835C32.3641 29.4896 30.8804 28.875 29.3333 28.875H17.6666C16.1196 28.875 14.6358 29.4896 13.5419 30.5835C12.4479 31.6775 11.8333 33.1612 11.8333 34.7083V37.625M29.3333 17.2083C29.3333 20.43 26.7216 23.0417 23.5 23.0417C20.2783 23.0417 17.6666 20.43 17.6666 17.2083C17.6666 13.9867 20.2783 11.375 23.5 11.375C26.7216 11.375 29.3333 13.9867 29.3333 17.2083Z" stroke="#F78420" stroke-width="4" stroke-linecap="round" stroke-linejoin="round"/>
</svg>
