<svg width="48" height="48" viewBox="0 0 48 48" fill="none" xmlns="http://www.w3.org/2000/svg">
<circle cx="24" cy="24" r="24" fill="#630C7B"/>
<path d="M35.1667 37.625V34.7083C35.1667 33.1612 34.5521 31.6775 33.4582 30.5835C32.3642 29.4896 30.8805 28.875 29.3334 28.875H17.6667C16.1196 28.875 14.6359 29.4896 13.5419 30.5835C12.448 31.6775 11.8334 33.1612 11.8334 34.7083V37.625M29.3334 17.2083C29.3334 20.43 26.7217 23.0417 23.5 23.0417C20.2784 23.0417 17.6667 20.43 17.6667 17.2083C17.6667 13.9867 20.2784 11.375 23.5 11.375C26.7217 11.375 29.3334 13.9867 29.3334 17.2083Z" stroke="#F6D5FF" stroke-width="4" stroke-linecap="round" stroke-linejoin="round"/>
</svg>
